<?xml version="1.0" encoding="UTF-8"?>
<mxfile host="app.diagrams.net" agent="Mozilla/5.0 (Macintosh; Intel Mac OS X 10_15_7) AppleWebKit/537.36 (KHTML, like Gecko) Chrome/140.0.0.0 Safari/537.36" version="28.2.3">
  <diagram id="n1DPlX7bn4B0wjNkJa_A" name="Page-1">
    <mxGraphModel dx="910" dy="-169" grid="1" gridSize="10" guides="1" tooltips="1" connect="1" arrows="1" fold="1" page="1" pageScale="1" pageWidth="827" pageHeight="1169" math="0" shadow="0">
      <root>
        <mxCell id="0" />
        <mxCell id="1" parent="0" />
        <object placeholders="1" c4Name="MES API" c4Type="Container" c4Technology="C#" c4Description="- Assigns orders on operators&#xa;- Shows list of orders&#xa;- Calculates price of the order" label="&lt;font style=&quot;font-size: 16px&quot;&gt;&lt;b&gt;%c4Name%&lt;/b&gt;&lt;/font&gt;&lt;div&gt;[%c4Type%: %c4Technology%]&lt;/div&gt;&lt;br&gt;&lt;div&gt;&lt;font style=&quot;font-size: 11px&quot;&gt;&lt;font color=&quot;#E6E6E6&quot;&gt;%c4Description%&lt;/font&gt;&lt;/div&gt;" id="G3vFrTiV91k2r75ZdAF5-1">
          <mxCell style="rounded=1;whiteSpace=wrap;html=1;fontSize=11;labelBackgroundColor=none;fillColor=#23A2D9;fontColor=#ffffff;align=center;arcSize=10;strokeColor=#0E7DAD;metaEdit=1;resizable=0;points=[[0.25,0,0],[0.5,0,0],[0.75,0,0],[1,0.25,0],[1,0.5,0],[1,0.75,0],[0.75,1,0],[0.5,1,0],[0.25,1,0],[0,0.75,0],[0,0.5,0],[0,0.25,0]];" vertex="1" parent="1">
            <mxGeometry x="1620" y="2285" width="240" height="120" as="geometry" />
          </mxCell>
        </object>
        <object placeholders="1" c4Name="Messages Queue" c4Type="Container" c4Technology="RabbitMQ" c4Description="Send messages about new orders, changes of statuses between containers, has several topics" label="&lt;font style=&quot;font-size: 16px&quot;&gt;&lt;b&gt;%c4Name%&lt;/b&gt;&lt;/font&gt;&lt;div&gt;[%c4Type%:&amp;nbsp;%c4Technology%]&lt;/div&gt;&lt;br&gt;&lt;div&gt;&lt;font style=&quot;font-size: 11px&quot;&gt;&lt;font color=&quot;#E6E6E6&quot;&gt;%c4Description%&lt;/font&gt;&lt;/div&gt;" id="G3vFrTiV91k2r75ZdAF5-2">
          <mxCell style="shape=cylinder3;size=15;direction=south;whiteSpace=wrap;html=1;boundedLbl=1;rounded=0;labelBackgroundColor=none;fillColor=#23A2D9;fontSize=12;fontColor=#ffffff;align=center;strokeColor=#0E7DAD;metaEdit=1;points=[[0.5,0,0],[1,0.25,0],[1,0.5,0],[1,0.75,0],[0.5,1,0],[0,0.75,0],[0,0.5,0],[0,0.25,0]];resizable=0;" vertex="1" parent="1">
            <mxGeometry x="2530" y="2035" width="240" height="120" as="geometry" />
          </mxCell>
        </object>
        <object placeholders="1" c4Name="Internet Shop" c4Type="Container" c4Technology="Vue, TypeScript, Threejs" c4Description="User can make an order, upload 3d model, work in 3d editor" label="&lt;font style=&quot;font-size: 16px&quot;&gt;&lt;b&gt;%c4Name%&lt;/b&gt;&lt;/font&gt;&lt;div&gt;[%c4Type%:&amp;nbsp;%c4Technology%]&lt;/div&gt;&lt;br&gt;&lt;div&gt;&lt;font style=&quot;font-size: 11px&quot;&gt;&lt;font color=&quot;#E6E6E6&quot;&gt;%c4Description%&lt;/font&gt;&lt;/div&gt;" id="G3vFrTiV91k2r75ZdAF5-3">
          <mxCell style="shape=mxgraph.c4.webBrowserContainer2;whiteSpace=wrap;html=1;boundedLbl=1;rounded=0;labelBackgroundColor=none;strokeColor=#118ACD;fillColor=#23A2D9;strokeColor=#118ACD;strokeColor2=#0E7DAD;fontSize=12;fontColor=#ffffff;align=center;metaEdit=1;points=[[0.5,0,0],[1,0.25,0],[1,0.5,0],[1,0.75,0],[0.5,1,0],[0,0.75,0],[0,0.5,0],[0,0.25,0]];resizable=0;" vertex="1" parent="1">
            <mxGeometry x="1610" y="1655" width="240" height="160" as="geometry" />
          </mxCell>
        </object>
        <object placeholders="1" c4Name="MES" c4Type="Container" c4Technology="React, typescript" c4Description="provide interface to assign orders on operators, shows list of orders" label="&lt;font style=&quot;font-size: 16px&quot;&gt;&lt;b&gt;%c4Name%&lt;/b&gt;&lt;/font&gt;&lt;div&gt;[%c4Type%:&amp;nbsp;%c4Technology%]&lt;/div&gt;&lt;br&gt;&lt;div&gt;&lt;font style=&quot;font-size: 11px&quot;&gt;&lt;font color=&quot;#E6E6E6&quot;&gt;%c4Description%&lt;/font&gt;&lt;/div&gt;" id="G3vFrTiV91k2r75ZdAF5-4">
          <mxCell style="shape=mxgraph.c4.webBrowserContainer2;whiteSpace=wrap;html=1;boundedLbl=1;rounded=0;labelBackgroundColor=none;strokeColor=#118ACD;fillColor=#23A2D9;strokeColor=#118ACD;strokeColor2=#0E7DAD;fontSize=12;fontColor=#ffffff;align=center;metaEdit=1;points=[[0.5,0,0],[1,0.25,0],[1,0.5,0],[1,0.75,0],[0.5,1,0],[0,0.75,0],[0,0.5,0],[0,0.25,0]];resizable=0;" vertex="1" parent="1">
            <mxGeometry x="1620" y="2465" width="240" height="160" as="geometry" />
          </mxCell>
        </object>
        <mxCell id="G3vFrTiV91k2r75ZdAF5-5" style="edgeStyle=orthogonalEdgeStyle;rounded=0;orthogonalLoop=1;jettySize=auto;html=1;" edge="1" parent="1" source="G3vFrTiV91k2r75ZdAF5-6" target="G3vFrTiV91k2r75ZdAF5-4">
          <mxGeometry relative="1" as="geometry" />
        </mxCell>
        <object placeholders="1" c4Name="Operator" c4Type="Person" c4Description="Takes order in work, manufactures jewerly " label="&lt;font style=&quot;font-size: 16px&quot;&gt;&lt;b&gt;%c4Name%&lt;/b&gt;&lt;/font&gt;&lt;div&gt;[%c4Type%]&lt;/div&gt;&lt;br&gt;&lt;div&gt;&lt;font style=&quot;font-size: 11px&quot;&gt;&lt;font color=&quot;#cccccc&quot;&gt;%c4Description%&lt;/font&gt;&lt;/div&gt;" id="G3vFrTiV91k2r75ZdAF5-6">
          <mxCell style="html=1;fontSize=11;dashed=0;whiteSpace=wrap;fillColor=#083F75;strokeColor=#06315C;fontColor=#ffffff;shape=mxgraph.c4.person2;align=center;metaEdit=1;points=[[0.5,0,0],[1,0.5,0],[1,0.75,0],[0.75,1,0],[0.5,1,0],[0.25,1,0],[0,0.75,0],[0,0.5,0]];resizable=0;" vertex="1" parent="1">
            <mxGeometry x="1170" y="2355" width="200" height="180" as="geometry" />
          </mxCell>
        </object>
        <object placeholders="1" c4Name="Customer" c4Type="Person" c4Description="Description of external person." label="&lt;font style=&quot;font-size: 16px&quot;&gt;&lt;b&gt;%c4Name%&lt;/b&gt;&lt;/font&gt;&lt;div&gt;[%c4Type%]&lt;/div&gt;&lt;br&gt;&lt;div&gt;&lt;font style=&quot;font-size: 11px&quot;&gt;&lt;font color=&quot;#cccccc&quot;&gt;%c4Description%&lt;/font&gt;&lt;/div&gt;" id="G3vFrTiV91k2r75ZdAF5-7">
          <mxCell style="html=1;fontSize=11;dashed=0;whiteSpace=wrap;fillColor=#6C6477;strokeColor=#4D4D4D;fontColor=#ffffff;shape=mxgraph.c4.person2;align=center;metaEdit=1;points=[[0.5,0,0],[1,0.5,0],[1,0.75,0],[0.75,1,0],[0.5,1,0],[0.25,1,0],[0,0.75,0],[0,0.5,0]];resizable=0;" vertex="1" parent="1">
            <mxGeometry x="1170" y="1645" width="200" height="180" as="geometry" />
          </mxCell>
        </object>
        <object placeholders="1" c4Name="API user" c4Type="Person" c4Description="Description of external person." label="&lt;font style=&quot;font-size: 16px&quot;&gt;&lt;b&gt;%c4Name%&lt;/b&gt;&lt;/font&gt;&lt;div&gt;[%c4Type%]&lt;/div&gt;&lt;br&gt;&lt;div&gt;&lt;font style=&quot;font-size: 11px&quot;&gt;&lt;font color=&quot;#cccccc&quot;&gt;%c4Description%&lt;/font&gt;&lt;/div&gt;" id="G3vFrTiV91k2r75ZdAF5-8">
          <mxCell style="html=1;fontSize=11;dashed=0;whiteSpace=wrap;fillColor=#6C6477;strokeColor=#4D4D4D;fontColor=#ffffff;shape=mxgraph.c4.person2;align=center;metaEdit=1;points=[[0.5,0,0],[1,0.5,0],[1,0.75,0],[0.75,1,0],[0.5,1,0],[0.25,1,0],[0,0.75,0],[0,0.5,0]];resizable=0;" vertex="1" parent="1">
            <mxGeometry x="1170" y="2095" width="200" height="180" as="geometry" />
          </mxCell>
        </object>
        <object placeholders="1" c4Name="Shop API" c4Type="Container" c4Technology="SpringBoot" c4Description="- provide list of shop items&#xa;- receives user generated or uploaded 3d file&#xa;- save information about order from customer perspective&#xa;" label="&lt;font style=&quot;font-size: 16px&quot;&gt;&lt;b&gt;%c4Name%&lt;/b&gt;&lt;/font&gt;&lt;div&gt;[%c4Type%: %c4Technology%]&lt;/div&gt;&lt;br&gt;&lt;div&gt;&lt;font style=&quot;font-size: 11px&quot;&gt;&lt;font color=&quot;#E6E6E6&quot;&gt;%c4Description%&lt;/font&gt;&lt;/div&gt;" id="G3vFrTiV91k2r75ZdAF5-9">
          <mxCell style="rounded=1;whiteSpace=wrap;html=1;fontSize=11;labelBackgroundColor=none;fillColor=#23A2D9;fontColor=#ffffff;align=center;arcSize=10;strokeColor=#0E7DAD;metaEdit=1;resizable=0;points=[[0.25,0,0],[0.5,0,0],[0.75,0,0],[1,0.25,0],[1,0.5,0],[1,0.75,0],[0.75,1,0],[0.5,1,0],[0.25,1,0],[0,0.75,0],[0,0.5,0],[0,0.25,0]];" vertex="1" parent="1">
            <mxGeometry x="2000" y="1675" width="240" height="120" as="geometry" />
          </mxCell>
        </object>
        <object placeholders="1" c4Name="CRM" c4Type="Container" c4Technology="Vue, Typescript" c4Description="Description of web browser container role/responsibility." label="&lt;font style=&quot;font-size: 16px&quot;&gt;&lt;b&gt;%c4Name%&lt;/b&gt;&lt;/font&gt;&lt;div&gt;[%c4Type%:&amp;nbsp;%c4Technology%]&lt;/div&gt;&lt;br&gt;&lt;div&gt;&lt;font style=&quot;font-size: 11px&quot;&gt;&lt;font color=&quot;#E6E6E6&quot;&gt;%c4Description%&lt;/font&gt;&lt;/div&gt;" id="G3vFrTiV91k2r75ZdAF5-10">
          <mxCell style="shape=mxgraph.c4.webBrowserContainer2;whiteSpace=wrap;html=1;boundedLbl=1;rounded=0;labelBackgroundColor=none;strokeColor=#118ACD;fillColor=#23A2D9;strokeColor=#118ACD;strokeColor2=#0E7DAD;fontSize=12;fontColor=#ffffff;align=center;metaEdit=1;points=[[0.5,0,0],[1,0.25,0],[1,0.5,0],[1,0.75,0],[0.5,1,0],[0,0.75,0],[0,0.5,0],[0,0.25,0]];resizable=0;" vertex="1" parent="1">
            <mxGeometry x="1620" y="1925" width="240" height="160" as="geometry" />
          </mxCell>
        </object>
        <object placeholders="1" c4Name="CRM API" c4Type="Container" c4Technology="SpringBoot" c4Description="Description of container role/responsibility." label="&lt;font style=&quot;font-size: 16px&quot;&gt;&lt;b&gt;%c4Name%&lt;/b&gt;&lt;/font&gt;&lt;div&gt;[%c4Type%: %c4Technology%]&lt;/div&gt;&lt;br&gt;&lt;div&gt;&lt;font style=&quot;font-size: 11px&quot;&gt;&lt;font color=&quot;#E6E6E6&quot;&gt;%c4Description%&lt;/font&gt;&lt;/div&gt;" id="G3vFrTiV91k2r75ZdAF5-11">
          <mxCell style="rounded=1;whiteSpace=wrap;html=1;fontSize=11;labelBackgroundColor=none;fillColor=#23A2D9;fontColor=#ffffff;align=center;arcSize=10;strokeColor=#0E7DAD;metaEdit=1;resizable=0;points=[[0.25,0,0],[0.5,0,0],[0.75,0,0],[1,0.25,0],[1,0.5,0],[1,0.75,0],[0.75,1,0],[0.5,1,0],[0.25,1,0],[0,0.75,0],[0,0.5,0],[0,0.25,0]];" vertex="1" parent="1">
            <mxGeometry x="2180" y="1945" width="240" height="120" as="geometry" />
          </mxCell>
        </object>
        <object placeholders="1" c4Name="Shop DB" c4Type="Container" c4Technology="PostgreSQL" c4Description="Holds main information about work with customers and its orders&#xa;" label="&lt;font style=&quot;font-size: 16px&quot;&gt;&lt;b&gt;%c4Name%&lt;/b&gt;&lt;/font&gt;&lt;div&gt;[%c4Type%:&amp;nbsp;%c4Technology%]&lt;/div&gt;&lt;br&gt;&lt;div&gt;&lt;font style=&quot;font-size: 11px&quot;&gt;&lt;font color=&quot;#E6E6E6&quot;&gt;%c4Description%&lt;/font&gt;&lt;/div&gt;" id="G3vFrTiV91k2r75ZdAF5-12">
          <mxCell style="shape=cylinder3;size=20;whiteSpace=wrap;html=1;boundedLbl=1;rounded=0;labelBackgroundColor=none;fillColor=#23A2D9;fontSize=12;fontColor=#ffffff;align=center;strokeColor=#0E7DAD;metaEdit=1;points=[[0.5,0,0],[1,0.25,0],[1,0.5,0],[1,0.75,0],[0.5,1,0],[0,0.75,0],[0,0.5,0],[0,0.25,0]];resizable=0;" vertex="1" parent="1">
            <mxGeometry x="2490" y="1675" width="240" height="120" as="geometry" />
          </mxCell>
        </object>
        <mxCell id="G3vFrTiV91k2r75ZdAF5-13" style="edgeStyle=orthogonalEdgeStyle;rounded=0;orthogonalLoop=1;jettySize=auto;html=1;entryX=0.196;entryY=1.008;entryDx=0;entryDy=0;entryPerimeter=0;" edge="1" parent="1" source="G3vFrTiV91k2r75ZdAF5-11" target="G3vFrTiV91k2r75ZdAF5-12">
          <mxGeometry relative="1" as="geometry" />
        </mxCell>
        <mxCell id="G3vFrTiV91k2r75ZdAF5-14" style="edgeStyle=orthogonalEdgeStyle;rounded=0;orthogonalLoop=1;jettySize=auto;html=1;entryX=0;entryY=0.5;entryDx=0;entryDy=0;entryPerimeter=0;" edge="1" parent="1" source="G3vFrTiV91k2r75ZdAF5-9" target="G3vFrTiV91k2r75ZdAF5-12">
          <mxGeometry relative="1" as="geometry" />
        </mxCell>
        <mxCell id="G3vFrTiV91k2r75ZdAF5-15" style="edgeStyle=orthogonalEdgeStyle;rounded=0;orthogonalLoop=1;jettySize=auto;html=1;entryX=0;entryY=0.5;entryDx=0;entryDy=0;entryPerimeter=0;" edge="1" parent="1" source="G3vFrTiV91k2r75ZdAF5-3" target="G3vFrTiV91k2r75ZdAF5-9">
          <mxGeometry relative="1" as="geometry" />
        </mxCell>
        <mxCell id="G3vFrTiV91k2r75ZdAF5-16" style="edgeStyle=orthogonalEdgeStyle;rounded=0;orthogonalLoop=1;jettySize=auto;html=1;entryX=0.767;entryY=1;entryDx=0;entryDy=0;entryPerimeter=0;exitX=0.75;exitY=1;exitDx=0;exitDy=0;exitPerimeter=0;startArrow=classic;startFill=1;" edge="1" parent="1" source="G3vFrTiV91k2r75ZdAF5-11" target="G3vFrTiV91k2r75ZdAF5-2">
          <mxGeometry relative="1" as="geometry" />
        </mxCell>
        <mxCell id="G3vFrTiV91k2r75ZdAF5-17" style="edgeStyle=orthogonalEdgeStyle;rounded=0;orthogonalLoop=1;jettySize=auto;html=1;entryX=0.617;entryY=-0.004;entryDx=0;entryDy=0;entryPerimeter=0;startArrow=classic;startFill=1;" edge="1" parent="1" source="G3vFrTiV91k2r75ZdAF5-1" target="G3vFrTiV91k2r75ZdAF5-2">
          <mxGeometry relative="1" as="geometry" />
        </mxCell>
        <mxCell id="G3vFrTiV91k2r75ZdAF5-18" style="edgeStyle=orthogonalEdgeStyle;rounded=0;orthogonalLoop=1;jettySize=auto;html=1;entryX=0.5;entryY=1;entryDx=0;entryDy=0;entryPerimeter=0;" edge="1" parent="1" source="G3vFrTiV91k2r75ZdAF5-4" target="G3vFrTiV91k2r75ZdAF5-1">
          <mxGeometry relative="1" as="geometry" />
        </mxCell>
        <object placeholders="1" c4Name="Jewerly Store System" c4Type="SystemScopeBoundary" c4Application="Software System" label="&lt;font style=&quot;font-size: 16px&quot;&gt;&lt;b&gt;&lt;div style=&quot;text-align: left&quot;&gt;%c4Name%&lt;/div&gt;&lt;/b&gt;&lt;/font&gt;&lt;div style=&quot;text-align: left&quot;&gt;[%c4Application%]&lt;/div&gt;" id="G3vFrTiV91k2r75ZdAF5-19">
          <mxCell style="rounded=1;fontSize=11;whiteSpace=wrap;html=1;dashed=1;arcSize=20;fillColor=none;strokeColor=#666666;fontColor=#333333;labelBackgroundColor=none;align=left;verticalAlign=bottom;labelBorderColor=none;spacingTop=0;spacing=10;dashPattern=8 4;metaEdit=1;rotatable=0;perimeter=rectanglePerimeter;noLabel=0;labelPadding=0;allowArrows=0;connectable=0;expand=0;recursiveResize=0;editable=1;pointerEvents=0;absoluteArcSize=1;points=[[0.25,0,0],[0.5,0,0],[0.75,0,0],[1,0.25,0],[1,0.5,0],[1,0.75,0],[0.75,1,0],[0.5,1,0],[0.25,1,0],[0,0.75,0],[0,0.5,0],[0,0.25,0]];" vertex="1" parent="1">
            <mxGeometry x="1590" y="1630" width="1230" height="1290" as="geometry" />
          </mxCell>
        </object>
        <mxCell id="G3vFrTiV91k2r75ZdAF5-20" style="edgeStyle=orthogonalEdgeStyle;rounded=0;orthogonalLoop=1;jettySize=auto;html=1;entryX=0;entryY=0.25;entryDx=0;entryDy=0;entryPerimeter=0;" edge="1" parent="1" source="G3vFrTiV91k2r75ZdAF5-8" target="G3vFrTiV91k2r75ZdAF5-1">
          <mxGeometry relative="1" as="geometry" />
        </mxCell>
        <mxCell id="G3vFrTiV91k2r75ZdAF5-21" style="edgeStyle=orthogonalEdgeStyle;rounded=0;orthogonalLoop=1;jettySize=auto;html=1;entryX=0;entryY=0.5;entryDx=0;entryDy=0;entryPerimeter=0;" edge="1" parent="1" source="G3vFrTiV91k2r75ZdAF5-10" target="G3vFrTiV91k2r75ZdAF5-11">
          <mxGeometry relative="1" as="geometry" />
        </mxCell>
        <mxCell id="G3vFrTiV91k2r75ZdAF5-22" style="edgeStyle=orthogonalEdgeStyle;rounded=0;orthogonalLoop=1;jettySize=auto;html=1;entryX=0;entryY=0.5;entryDx=0;entryDy=0;entryPerimeter=0;" edge="1" parent="1" source="G3vFrTiV91k2r75ZdAF5-7" target="G3vFrTiV91k2r75ZdAF5-3">
          <mxGeometry relative="1" as="geometry" />
        </mxCell>
        <mxCell id="G3vFrTiV91k2r75ZdAF5-23" value="" style="edgeStyle=orthogonalEdgeStyle;rounded=0;orthogonalLoop=1;jettySize=auto;html=1;startArrow=classic;startFill=1;endArrow=none;endFill=0;" edge="1" parent="1" source="G3vFrTiV91k2r75ZdAF5-24" target="G3vFrTiV91k2r75ZdAF5-11">
          <mxGeometry relative="1" as="geometry" />
        </mxCell>
        <object placeholders="1" c4Name="3d files storage" c4Type="Container" c4Technology="S3-based storage" c4Description="stores 3d files so that can be calculated" label="&lt;font style=&quot;font-size: 16px&quot;&gt;&lt;b&gt;%c4Name%&lt;/b&gt;&lt;/font&gt;&lt;div&gt;[%c4Type%: %c4Technology%]&lt;/div&gt;&lt;br&gt;&lt;div&gt;&lt;font style=&quot;font-size: 11px&quot;&gt;&lt;font color=&quot;#E6E6E6&quot;&gt;%c4Description%&lt;/font&gt;&lt;/div&gt;" id="G3vFrTiV91k2r75ZdAF5-24">
          <mxCell style="rounded=1;whiteSpace=wrap;html=1;fontSize=11;labelBackgroundColor=none;fillColor=#23A2D9;fontColor=#ffffff;align=center;arcSize=10;strokeColor=#0E7DAD;metaEdit=1;resizable=0;points=[[0.25,0,0],[0.5,0,0],[0.75,0,0],[1,0.25,0],[1,0.5,0],[1,0.75,0],[0.75,1,0],[0.5,1,0],[0.25,1,0],[0,0.75,0],[0,0.5,0],[0,0.25,0]];" vertex="1" parent="1">
            <mxGeometry x="1990" y="2175" width="240" height="120" as="geometry" />
          </mxCell>
        </object>
        <mxCell id="G3vFrTiV91k2r75ZdAF5-25" style="edgeStyle=orthogonalEdgeStyle;rounded=0;orthogonalLoop=1;jettySize=auto;html=1;entryX=0;entryY=0.5;entryDx=0;entryDy=0;entryPerimeter=0;" edge="1" parent="1" source="G3vFrTiV91k2r75ZdAF5-1" target="G3vFrTiV91k2r75ZdAF5-24">
          <mxGeometry relative="1" as="geometry">
            <Array as="points">
              <mxPoint x="1740" y="2225" />
            </Array>
          </mxGeometry>
        </mxCell>
        <mxCell id="G3vFrTiV91k2r75ZdAF5-26" style="edgeStyle=orthogonalEdgeStyle;rounded=0;orthogonalLoop=1;jettySize=auto;html=1;entryX=0.25;entryY=0;entryDx=0;entryDy=0;entryPerimeter=0;exitX=0.25;exitY=1;exitDx=0;exitDy=0;exitPerimeter=0;" edge="1" parent="1" source="G3vFrTiV91k2r75ZdAF5-9" target="G3vFrTiV91k2r75ZdAF5-24">
          <mxGeometry relative="1" as="geometry">
            <mxPoint x="2060" y="1825" as="sourcePoint" />
            <mxPoint x="2260.08" y="2185.96" as="targetPoint" />
            <Array as="points">
              <mxPoint x="2050" y="1795" />
            </Array>
          </mxGeometry>
        </mxCell>
        <mxCell id="G3vFrTiV91k2r75ZdAF5-27" value="uploads files" style="edgeLabel;html=1;align=center;verticalAlign=middle;resizable=0;points=[];" vertex="1" connectable="0" parent="G3vFrTiV91k2r75ZdAF5-26">
          <mxGeometry x="-0.3713" y="-2" relative="1" as="geometry">
            <mxPoint x="-8" y="-102" as="offset" />
          </mxGeometry>
        </mxCell>
        <object placeholders="1" c4Name="Seller" c4Type="Person" c4Description="Operates with order, confirms manufacturing for the user" label="&lt;font style=&quot;font-size: 16px&quot;&gt;&lt;b&gt;%c4Name%&lt;/b&gt;&lt;/font&gt;&lt;div&gt;[%c4Type%]&lt;/div&gt;&lt;br&gt;&lt;div&gt;&lt;font style=&quot;font-size: 11px&quot;&gt;&lt;font color=&quot;#cccccc&quot;&gt;%c4Description%&lt;/font&gt;&lt;/div&gt;" id="G3vFrTiV91k2r75ZdAF5-28">
          <mxCell style="html=1;fontSize=11;dashed=0;whiteSpace=wrap;fillColor=#083F75;strokeColor=#06315C;fontColor=#ffffff;shape=mxgraph.c4.person2;align=center;metaEdit=1;points=[[0.5,0,0],[1,0.5,0],[1,0.75,0],[0.75,1,0],[0.5,1,0],[0.25,1,0],[0,0.75,0],[0,0.5,0]];resizable=0;" vertex="1" parent="1">
            <mxGeometry x="1170" y="1875" width="200" height="180" as="geometry" />
          </mxCell>
        </object>
        <mxCell id="G3vFrTiV91k2r75ZdAF5-29" style="edgeStyle=orthogonalEdgeStyle;rounded=0;orthogonalLoop=1;jettySize=auto;html=1;entryX=0;entryY=0.25;entryDx=0;entryDy=0;entryPerimeter=0;" edge="1" parent="1" source="G3vFrTiV91k2r75ZdAF5-28" target="G3vFrTiV91k2r75ZdAF5-10">
          <mxGeometry relative="1" as="geometry" />
        </mxCell>
        <object placeholders="1" c4Name="MES db" c4Type="Container" c4Technology="PostgreSQL" c4Description="Holds information about orders, its assignments on operators and statuses from MES perspective" label="&lt;font style=&quot;font-size: 16px&quot;&gt;&lt;b&gt;%c4Name%&lt;/b&gt;&lt;/font&gt;&lt;div&gt;[%c4Type%:&amp;nbsp;%c4Technology%]&lt;/div&gt;&lt;br&gt;&lt;div&gt;&lt;font style=&quot;font-size: 11px&quot;&gt;&lt;font color=&quot;#E6E6E6&quot;&gt;%c4Description%&lt;/font&gt;&lt;/div&gt;" id="G3vFrTiV91k2r75ZdAF5-30">
          <mxCell style="shape=cylinder3;size=15;whiteSpace=wrap;html=1;boundedLbl=1;rounded=0;labelBackgroundColor=none;fillColor=#23A2D9;fontSize=12;fontColor=#ffffff;align=center;strokeColor=#0E7DAD;metaEdit=1;points=[[0.5,0,0],[1,0.25,0],[1,0.5,0],[1,0.75,0],[0.5,1,0],[0,0.75,0],[0,0.5,0],[0,0.25,0]];resizable=0;" vertex="1" parent="1">
            <mxGeometry x="2504" y="2455" width="240" height="120" as="geometry" />
          </mxCell>
        </object>
        <mxCell id="G3vFrTiV91k2r75ZdAF5-31" style="edgeStyle=orthogonalEdgeStyle;rounded=0;orthogonalLoop=1;jettySize=auto;html=1;entryX=0.004;entryY=0.567;entryDx=0;entryDy=0;entryPerimeter=0;" edge="1" parent="1" source="G3vFrTiV91k2r75ZdAF5-1" target="G3vFrTiV91k2r75ZdAF5-30">
          <mxGeometry relative="1" as="geometry">
            <mxPoint x="2470" y="2525" as="targetPoint" />
            <Array as="points">
              <mxPoint x="2182" y="2385" />
              <mxPoint x="2182" y="2523" />
            </Array>
          </mxGeometry>
        </mxCell>
        <object placeholders="1" c4Type="Relationship" c4Description="Flow of information (from - to) " label="&lt;div style=&quot;text-align: left&quot;&gt;&lt;div style=&quot;text-align: center&quot;&gt;&lt;b&gt;%c4Description%&lt;/b&gt;&lt;/div&gt;" id="G3vFrTiV91k2r75ZdAF5-32">
          <mxCell style="endArrow=blockThin;html=1;fontSize=10;fontColor=#404040;strokeWidth=1;endFill=1;strokeColor=#828282;elbow=vertical;metaEdit=1;endSize=14;startSize=14;jumpStyle=arc;jumpSize=16;rounded=0;edgeStyle=orthogonalEdgeStyle;" edge="1" parent="1">
            <mxGeometry x="0.1333" width="240" relative="1" as="geometry">
              <mxPoint x="1110" y="2725" as="sourcePoint" />
              <mxPoint x="1350" y="2725" as="targetPoint" />
              <mxPoint as="offset" />
            </mxGeometry>
          </mxCell>
        </object>
        <mxCell id="G3vFrTiV91k2r75ZdAF5-33" value="Jaeger Agent&#xa;[Tracing]" style="rounded=1;whiteSpace=wrap;html=1;fontSize=10;fillColor=#f44336;strokeColor=#c62828;fontColor=#ffffff;" vertex="1" parent="1">
          <mxGeometry x="1640" y="2710" width="120" height="60" as="geometry" />
        </mxCell>
        <mxCell id="G3vFrTiV91k2r75ZdAF5-34" value="Jaeger Collector&#xa;[Tracing]" style="rounded=1;whiteSpace=wrap;html=1;fontSize=10;fillColor=#f44336;strokeColor=#c62828;fontColor=#ffffff;" vertex="1" parent="1">
          <mxGeometry x="1790" y="2710" width="120" height="60" as="geometry" />
        </mxCell>
        <mxCell id="G3vFrTiV91k2r75ZdAF5-35" value="Elasticsearch&#xa;[Storage]" style="shape=cylinder3;whiteSpace=wrap;html=1;boundedLbl=1;backgroundOutline=1;size=15;fontSize=10;fillColor=#f44336;strokeColor=#c62828;fontColor=#ffffff;" vertex="1" parent="1">
          <mxGeometry x="1940" y="2710" width="120" height="60" as="geometry" />
        </mxCell>
        <mxCell id="G3vFrTiV91k2r75ZdAF5-36" value="Jaeger Query&#xa;[Search]" style="rounded=1;whiteSpace=wrap;html=1;fontSize=10;fillColor=#f44336;strokeColor=#c62828;fontColor=#ffffff;" vertex="1" parent="1">
          <mxGeometry x="2090" y="2710" width="120" height="60" as="geometry" />
        </mxCell>
        <mxCell id="G3vFrTiV91k2r75ZdAF5-37" value="Jaeger UI&#xa;[Dashboard]" style="rounded=1;whiteSpace=wrap;html=1;fontSize=10;fillColor=#f44336;strokeColor=#c62828;fontColor=#ffffff;" vertex="1" parent="1">
          <mxGeometry x="2240" y="2710" width="120" height="60" as="geometry" />
        </mxCell>
        <mxCell id="G3vFrTiV91k2r75ZdAF5-38" value="SLA Monitor&#xa;[Monitoring]" style="rounded=1;whiteSpace=wrap;html=1;fontSize=10;fillColor=#4caf50;strokeColor=#2e7d32;fontColor=#ffffff;" vertex="1" parent="1">
          <mxGeometry x="2390" y="2710" width="120" height="60" as="geometry" />
        </mxCell>
        <mxCell id="G3vFrTiV91k2r75ZdAF5-39" value="Alerting Engine&#xa;[Alerts]" style="rounded=1;whiteSpace=wrap;html=1;fontSize=10;fillColor=#4caf50;strokeColor=#2e7d32;fontColor=#ffffff;" vertex="1" parent="1">
          <mxGeometry x="2540" y="2710" width="120" height="60" as="geometry" />
        </mxCell>
        <mxCell id="G3vFrTiV91k2r75ZdAF5-40" value="Automation Engine&#xa;[Actions]" style="rounded=1;whiteSpace=wrap;html=1;fontSize=10;fillColor=#4caf50;strokeColor=#2e7d32;fontColor=#ffffff;" vertex="1" parent="1">
          <mxGeometry x="2690" y="2710" width="120" height="60" as="geometry" />
        </mxCell>
        <mxCell id="G3vFrTiV91k2r75ZdAF5-41" value="Notification Service&#xa;[Notifications]" style="rounded=1;whiteSpace=wrap;html=1;fontSize=10;fillColor=#4caf50;strokeColor=#2e7d32;fontColor=#ffffff;" vertex="1" parent="1">
          <mxGeometry x="2390" y="2810" width="120" height="60" as="geometry" />
        </mxCell>
        <mxCell id="G3vFrTiV91k2r75ZdAF5-42" value="Pattern Analyzer&#xa;[Analysis]" style="rounded=1;whiteSpace=wrap;html=1;fontSize=10;fillColor=#4caf50;strokeColor=#2e7d32;fontColor=#ffffff;" vertex="1" parent="1">
          <mxGeometry x="2540" y="2810" width="120" height="60" as="geometry" />
        </mxCell>
         <mxCell id="G3vFrTiV91k2r75ZdAF5-43" value="OpenTelemetry SDK&#xa;[Instrumentation]" style="rounded=1;whiteSpace=wrap;html=1;fontSize=10;fillColor=#f44336;strokeColor=#c62828;fontColor=#ffffff;" vertex="1" parent="1">
           <mxGeometry x="2090" y="2810" width="120" height="60" as="geometry" />
         </mxCell>
         <mxCell id="G3vFrTiV91k2r75ZdAF5-44" value="" style="endArrow=classic;html=1;rounded=0;strokeWidth=2;strokeColor=#f44336;dashed=1;" edge="1" parent="1" source="G3vFrTiV91k2r75ZdAF5-3" target="G3vFrTiV91k2r75ZdAF5-43">
           <mxGeometry width="50" height="50" relative="1" as="geometry">
             <mxPoint x="1730" y="1735" as="sourcePoint" />
             <mxPoint x="2150" y="2810" as="targetPoint" />
           </mxGeometry>
         </mxCell>
         <mxCell id="G3vFrTiV91k2r75ZdAF5-45" value="" style="endArrow=classic;html=1;rounded=0;strokeWidth=2;strokeColor=#f44336;dashed=1;" edge="1" parent="1" source="G3vFrTiV91k2r75ZdAF5-10" target="G3vFrTiV91k2r75ZdAF5-43">
           <mxGeometry width="50" height="50" relative="1" as="geometry">
             <mxPoint x="1740" y="2005" as="sourcePoint" />
             <mxPoint x="2150" y="2810" as="targetPoint" />
           </mxGeometry>
         </mxCell>
         <mxCell id="G3vFrTiV91k2r75ZdAF5-46" value="" style="endArrow=classic;html=1;rounded=0;strokeWidth=2;strokeColor=#f44336;dashed=1;" edge="1" parent="1" source="G3vFrTiV91k2r75ZdAF5-4" target="G3vFrTiV91k2r75ZdAF5-43">
           <mxGeometry width="50" height="50" relative="1" as="geometry">
             <mxPoint x="1740" y="2545" as="sourcePoint" />
             <mxPoint x="2150" y="2810" as="targetPoint" />
           </mxGeometry>
         </mxCell>
         <mxCell id="G3vFrTiV91k2r75ZdAF5-47" value="" style="endArrow=classic;html=1;rounded=0;strokeWidth=2;strokeColor=#f44336;" edge="1" parent="1" source="G3vFrTiV91k2r75ZdAF5-43" target="G3vFrTiV91k2r75ZdAF5-33">
           <mxGeometry width="50" height="50" relative="1" as="geometry">
             <mxPoint x="2150" y="2810" as="sourcePoint" />
             <mxPoint x="1700" y="2710" as="targetPoint" />
           </mxGeometry>
         </mxCell>
         <mxCell id="G3vFrTiV91k2r75ZdAF5-48" value="" style="endArrow=classic;html=1;rounded=0;strokeWidth=2;strokeColor=#f44336;" edge="1" parent="1" source="G3vFrTiV91k2r75ZdAF5-33" target="G3vFrTiV91k2r75ZdAF5-34">
           <mxGeometry width="50" height="50" relative="1" as="geometry">
             <mxPoint x="1760" y="2740" as="sourcePoint" />
             <mxPoint x="1850" y="2740" as="targetPoint" />
           </mxGeometry>
         </mxCell>
         <mxCell id="G3vFrTiV91k2r75ZdAF5-49" value="" style="endArrow=classic;html=1;rounded=0;strokeWidth=2;strokeColor=#f44336;" edge="1" parent="1" source="G3vFrTiV91k2r75ZdAF5-34" target="G3vFrTiV91k2r75ZdAF5-35">
           <mxGeometry width="50" height="50" relative="1" as="geometry">
             <mxPoint x="1910" y="2740" as="sourcePoint" />
             <mxPoint x="2000" y="2740" as="targetPoint" />
           </mxGeometry>
         </mxCell>
         <mxCell id="G3vFrTiV91k2r75ZdAF5-50" value="" style="endArrow=classic;html=1;rounded=0;strokeWidth=2;strokeColor=#f44336;" edge="1" parent="1" source="G3vFrTiV91k2r75ZdAF5-35" target="G3vFrTiV91k2r75ZdAF5-36">
           <mxGeometry width="50" height="50" relative="1" as="geometry">
             <mxPoint x="2060" y="2740" as="sourcePoint" />
             <mxPoint x="2150" y="2740" as="targetPoint" />
           </mxGeometry>
         </mxCell>
         <mxCell id="G3vFrTiV91k2r75ZdAF5-51" value="" style="endArrow=classic;html=1;rounded=0;strokeWidth=2;strokeColor=#f44336;" edge="1" parent="1" source="G3vFrTiV91k2r75ZdAF5-36" target="G3vFrTiV91k2r75ZdAF5-37">
           <mxGeometry width="50" height="50" relative="1" as="geometry">
             <mxPoint x="2210" y="2740" as="sourcePoint" />
             <mxPoint x="2300" y="2740" as="targetPoint" />
           </mxGeometry>
         </mxCell>
         <mxCell id="G3vFrTiV91k2r75ZdAF5-52" value="" style="endArrow=classic;html=1;rounded=0;strokeWidth=2;strokeColor=#f44336;dashed=1;" edge="1" parent="1" source="G3vFrTiV91k2r75ZdAF5-37" target="G3vFrTiV91k2r75ZdAF5-28">
           <mxGeometry width="50" height="50" relative="1" as="geometry">
             <mxPoint x="2300" y="2740" as="sourcePoint" />
             <mxPoint x="1270" y="1965" as="targetPoint" />
           </mxGeometry>
         </mxCell>
         <mxCell id="G3vFrTiV91k2r75ZdAF5-53" value="" style="endArrow=classic;html=1;rounded=0;strokeWidth=2;strokeColor=#4caf50;" edge="1" parent="1" source="G3vFrTiV91k2r75ZdAF5-38" target="G3vFrTiV91k2r75ZdAF5-39">
           <mxGeometry width="50" height="50" relative="1" as="geometry">
             <mxPoint x="2450" y="2740" as="sourcePoint" />
             <mxPoint x="2600" y="2740" as="targetPoint" />
           </mxGeometry>
         </mxCell>
         <mxCell id="G3vFrTiV91k2r75ZdAF5-54" value="" style="endArrow=classic;html=1;rounded=0;strokeWidth=2;strokeColor=#4caf50;" edge="1" parent="1" source="G3vFrTiV91k2r75ZdAF5-39" target="G3vFrTiV91k2r75ZdAF5-40">
           <mxGeometry width="50" height="50" relative="1" as="geometry">
             <mxPoint x="2660" y="2740" as="sourcePoint" />
             <mxPoint x="2750" y="2740" as="targetPoint" />
           </mxGeometry>
         </mxCell>
         <mxCell id="G3vFrTiV91k2r75ZdAF5-55" value="" style="endArrow=classic;html=1;rounded=0;strokeWidth=2;strokeColor=#4caf50;" edge="1" parent="1" source="G3vFrTiV91k2r75ZdAF5-40" target="G3vFrTiV91k2r75ZdAF5-42">
           <mxGeometry width="50" height="50" relative="1" as="geometry">
             <mxPoint x="2750" y="2770" as="sourcePoint" />
             <mxPoint x="2600" y="2810" as="targetPoint" />
           </mxGeometry>
         </mxCell>
         <mxCell id="G3vFrTiV91k2r75ZdAF5-56" value="" style="endArrow=classic;html=1;rounded=0;strokeWidth=2;strokeColor=#4caf50;" edge="1" parent="1" source="G3vFrTiV91k2r75ZdAF5-42" target="G3vFrTiV91k2r75ZdAF5-41">
           <mxGeometry width="50" height="50" relative="1" as="geometry">
             <mxPoint x="2600" y="2810" as="sourcePoint" />
             <mxPoint x="2450" y="2810" as="targetPoint" />
           </mxGeometry>
         </mxCell>
         <mxCell id="G3vFrTiV91k2r75ZdAF5-57" value="" style="endArrow=classic;html=1;rounded=0;strokeWidth=2;strokeColor=#4caf50;dashed=1;" edge="1" parent="1" source="G3vFrTiV91k2r75ZdAF5-42" target="G3vFrTiV91k2r75ZdAF5-1">
           <mxGeometry width="50" height="50" relative="1" as="geometry">
             <mxPoint x="2600" y="2810" as="sourcePoint" />
             <mxPoint x="1740" y="2345" as="targetPoint" />
           </mxGeometry>
         </mxCell>
         <mxCell id="G3vFrTiV91k2r75ZdAF5-58" value="" style="endArrow=classic;html=1;rounded=0;strokeWidth=2;strokeColor=#4caf50;dashed=1;" edge="1" parent="1" source="G3vFrTiV91k2r75ZdAF5-11" target="G3vFrTiV91k2r75ZdAF5-41">
           <mxGeometry width="50" height="50" relative="1" as="geometry">
             <mxPoint x="2300" y="2005" as="sourcePoint" />
             <mxPoint x="2450" y="2810" as="targetPoint" />
           </mxGeometry>
         </mxCell>
       </root>
     </mxGraphModel>
   </diagram>
 </mxfile>
